# xmcd
#
# Track frame offsets: 
#        150
#        16433
#        35969
#        57335
#        72098
#        91242
#        113552
#        141835
#        161641
#        183641
#        214471
#
# Disc length: 3383 seconds
#
# Revision: 0
# Processed by: cddbd v1.5.2PL0 Copyright (c) Steve Scherf et al.
# Submitted via: ExactAudioCopy v0.95b4
#
DISCID=a20d350b
DTITLE=a world is comming to a town near you - the broken beats
DYEAR=1900
DGENRE=Alternative
TTITLE0=about a boy
TTITLE1=someone said
TTITLE2=the weather beats the rhythm
TTITLE3=the taxichase
TTITLE4=longing to leave
TTITLE5=you can't say wrong
TTITLE6=the beat
TTITLE7=travelling east
TTITLE8=soya money
TTITLE9=orange sealight
TTITLE10=the break
EXTD=
EXTT0=
EXTT1=
EXTT2=
EXTT3=
EXTT4=
EXTT5=
EXTT6=
EXTT7=
EXTT8=
EXTT9=
EXTT10=
PLAYORDER=
